<?xml version="1.0" encoding="utf-8"?>
<!-- Generator: Adobe Illustrator 24.2.3, SVG Export Plug-In . SVG Version: 6.00 Build 0)  -->
<svg version="1.1" id="Layer_1" xmlns="http://www.w3.org/2000/svg" xmlns:xlink="http://www.w3.org/1999/xlink" x="0px" y="0px"
	 viewBox="0 0 400.2 133.4" style="enable-background:new 0 0 400.2 133.4;" xml:space="preserve">
<style type="text/css">
	.st0{fill:#0067A5;}
	.st1{fill:none;stroke:#FFFFFF;stroke-width:0.96;stroke-miterlimit:10;}
	.st2{fill:none;stroke:#FFFFFF;stroke-width:5.17;stroke-miterlimit:10;}
	.st3{fill:#FFFFFF;}
</style>
<g id="Layer_2_1_">
	<circle class="st0" cx="333.5" cy="66.8" r="66.3"/>
	<path class="st1" d="M305.1,48.8l-15.6-32.2L305.1,48.8z"/>
	<polyline class="st1" points="333.4,37.3 372.1,34.5 372.1,71.6 397.5,84.5 	"/>
	<line class="st1" x1="362.2" y1="86.6" x2="320.8" y2="93.5"/>
	<polyline class="st1" points="341.8,65.2 372.2,71.6 362.2,86.6 341.8,65.2 333.5,37.3 293.7,13.2 	"/>
	<polyline class="st1" points="371.6,121.2 362.2,86.6 395.9,89.9 	"/>
	<line class="st1" x1="333.5" y1="133.2" x2="320.8" y2="93.5"/>
	<line class="st1" x1="305.1" y1="48.8" x2="304.3" y2="49.3"/>
	<polygon class="st1" points="304.9,49.5 292,82.9 266.9,69.3 304.3,49.3 	"/>
	<line class="st1" x1="304.3" y1="49.3" x2="274.1" y2="36.4"/>
	<polyline class="st2" points="292,82.9 277.3,102.5 292,82.9 	"/>
	<polygon class="st1" points="341.8,65.2 320.8,93.5 292,82.9 304.9,49.5 	"/>
	<polyline class="st1" points="335.8,0 333.5,37.3 304.9,49.5 	"/>
	<polyline class="st1" points="348.8,1.8 372.2,34.5 398.8,53.4 372.2,71.6 339.7,65.2 	"/>
	<polyline class="st1" points="388.6,29.3 372.2,34.5 368.8,10.1 	"/>
	<line class="st1" x1="341.8" y1="62.9" x2="372.2" y2="34.5"/>
	<polyline class="st1" points="339.7,65.2 292,82.9 293.8,120.1 320.8,93.5 371.6,121.2 	"/>
	<polyline class="st2" points="339.7,65.2 372.2,71.6 398.8,53.4 	"/>
	<circle class="st3" cx="292.5" cy="84.3" r="7.6"/>
	<circle class="st3" cx="340.5" cy="66.6" r="7.6"/>
	<circle class="st3" cx="320.3" cy="94.4" r="7.6"/>
	<circle class="st3" cx="373.3" cy="71.7" r="7.6"/>
	<polyline class="st2" points="292,82.9 320.5,94.6 339.7,65.9 	"/>
</g>
</svg>
