<svg id="Layer_1" data-name="Layer 1" xmlns="http://www.w3.org/2000/svg" viewBox="0 0 134.37 133.38"><defs><style>.cls-1{fill:#0067a5;}.cls-2,.cls-3{fill:none;stroke:#fff;stroke-miterlimit:10;}.cls-2{stroke-width:0.96px;}.cls-3{stroke-width:5.17px;}.cls-4{fill:#fff;}</style></defs><circle class="cls-1" cx="67.62" cy="66.86" r="66.26"/><path class="cls-2" d="M251.31,126.05,235.65,93.84Z" transform="translate(-212.03 -77.2)"/><polyline class="cls-2" points="67.51 37.33 106.23 34.56 106.23 71.66 131.69 84.5"/><line class="cls-2" x1="96.35" y1="86.65" x2="54.94" y2="93.56"/><polyline class="cls-2" points="75.92 65.22 106.33 71.66 96.35 86.65 75.92 65.22 67.62 37.33 27.82 13.22"/><polyline class="cls-2" points="105.71 121.27 96.35 86.64 130.05 89.89"/><line class="cls-2" x1="67.62" y1="133.24" x2="54.94" y2="93.56"/><line class="cls-2" x1="39.28" y1="48.84" x2="38.45" y2="49.29"/><polygon class="cls-2" points="39 49.52 26.14 82.95 1.02 69.36 38.45 49.29 39 49.52"/><line class="cls-2" x1="38.45" y1="49.29" x2="8.24" y2="36.45"/><polyline class="cls-3" points="26.14 82.95 11.48 102.48 26.14 82.96"/><polygon class="cls-2" points="75.92 65.22 54.94 93.56 26.14 82.95 39 49.52 75.92 65.22"/><polyline class="cls-2" points="69.93 0.03 67.62 37.33 39 49.52"/><polyline class="cls-2" points="82.96 1.81 106.34 34.56 132.91 53.4 106.34 71.66 73.84 65.21"/><polyline class="cls-2" points="122.77 29.28 106.34 34.56 102.91 10.14"/><line class="cls-2" x1="75.92" y1="62.91" x2="106.34" y2="34.56"/><polyline class="cls-2" points="73.84 65.21 26.14 82.96 27.93 120.12 54.95 93.56 105.71 121.27"/><polyline class="cls-3" points="73.84 65.21 106.34 71.66 132.91 53.4"/><circle class="cls-4" cx="26.66" cy="84.33" r="7.58"/><circle class="cls-4" cx="74.65" cy="66.65" r="7.58"/><circle class="cls-4" cx="54.45" cy="94.44" r="7.58"/><circle class="cls-4" cx="107.49" cy="71.7" r="7.58"/><polyline class="cls-3" points="26.14 82.95 54.6 94.6 73.85 65.9"/></svg>